<svg id="Layer_1" data-name="Layer 1" xmlns="http://www.w3.org/2000/svg" viewBox="0 0 115 100"><defs><style>.cls-1{fill:#fff;}.cls-2{fill:#ed1b52;}.cls-3{fill:#545454;}</style></defs><title>heart-full</title><rect class="cls-1" x="14.73" y="14.29" width="14.38" height="28.57"/><polygon class="cls-2" points="100.98 14.29 100.98 57.14 86.61 57.14 86.61 71.43 72.23 71.43 72.23 85.71 43.48 85.71 43.48 71.43 29.11 71.43 29.11 57.14 14.73 57.14 14.73 42.86 29.11 42.86 29.11 14.29 43.48 14.29 43.48 28.57 72.23 28.57 72.23 14.29 100.98 14.29"/><rect class="cls-3" x="0.36" y="14.29" width="14.38" height="42.86"/><rect class="cls-3" x="14.73" y="57.14" width="14.38" height="14.29"/><rect class="cls-3" x="29.11" y="71.43" width="14.38" height="14.29"/><rect class="cls-3" x="43.48" y="85.71" width="28.75" height="14.29"/><rect class="cls-3" x="14.73" width="28.75" height="14.29"/><rect class="cls-3" x="43.48" y="14.29" width="28.75" height="14.29"/><rect class="cls-3" x="72.23" width="28.75" height="14.29"/><rect class="cls-3" x="100.98" y="14.29" width="14.38" height="42.86"/><rect class="cls-3" x="86.61" y="57.14" width="14.38" height="14.29"/><rect class="cls-3" x="72.23" y="71.43" width="14.38" height="14.29"/></svg>